# xmcd
#
# Track frame offsets:
#	150
#	16094
#	30010
#	47305
#	63238
#	80018
#	97853
#	161448
#	176339
#	192906
#	209203
#	233270
#	268483
#	307769
#	333789
#
# Disc length: 4742 seconds
#
# Revision: 0
# Processed by: cddbd v1.5.2PL0 Copyright (c) Steve Scherf et al.
# Submitted via: EZCDAudioConverter 6.0.9.1
#
DISCID=ab12840f
DTITLE=Andy Frasco and The U. N. - Songs From The Road
DYEAR=2017
DGENRE=Blues Rock
TTITLE0=C Boogie
TTITLE1=When You're Lonely (Fill You Up)
TTITLE2=Tie You Up
TTITLE3=Make It Work
TTITLE4=Mature As Fuck
TTITLE5=Stop Fucking Around
TTITLE6=It's Been A Struggle
TTITLE7=Smokin' Dope And Rock N' Roll
TTITLE8=Crazy Guy
TTITLE9=Down The Road
TTITLE10=Doin' It
TTITLE11=Sunny Day Soldier
TTITLE12=What More Can I Say
TTITLE13=Main Squeeze
TTITLE14=Killing In The Name 
EXTD=
EXTT0=
EXTT1=
EXTT2=
EXTT3=
EXTT4=
EXTT5=
EXTT6=
EXTT7=
EXTT8=
EXTT9=
EXTT10=
EXTT11=
EXTT12=
EXTT13=
EXTT14=
PLAYORDER=
